<?xml version="1.0" encoding="UTF-8"?>
<svg xmlns="http://www.w3.org/2000/svg" viewBox="0 0 512 512">
  <path fill="#ff7043" d="M184 0c-74.4 0-135.7 58.7-139.9 132.7C19 134.4 0 155.2 0 180v36c0 13.3 10.7 24 24 24h48c13.3 0 24-10.7 24-24v-36c0-13.3-10.7-24-24-24h-1C74.9 83.2 124.1 48 184 48h144c59.9 0 109.1 35.2 113 81h-1c-13.3 0-24 10.7-24 24v36c0 13.3 10.7 24 24 24h48c13.3 0 24-10.7 24-24v-36c0-24.8-19-45.6-44.1-47.3C463.7 58.7 402.4 0 328 0H184zm328 192H0v32c0 35.3 28.7 64 64 64h64v64c0 35.3 28.7 64 64 64h64c35.3 0 64-28.7 64-64v-64h64c35.3 0 64-28.7 64-64v-32zM256 416c-26.5 0-48 21.5-48 48v32c0 8.8 7.2 16 16 16h64c8.8 0 16-7.2 16-16v-32c0-26.5-21.5-48-48-48z"/>
</svg>
