<svg xmlns="http://www.w3.org/2000/svg" viewBox="0 0 576 512" fill="#FF7043">
  <path d="M224 24V80H168c-13.3 0-24 10.7-24 24v48c0 13.3 10.7 24 24 24h56v56c0 13.3 10.7 24 24 24h48c13.3 0 24-10.7 24-24V176h56c13.3 0 24-10.7 24-24V104c0-13.3-10.7-24-24-24H320V24c0-13.3-10.7-24-24-24H248c-13.3 0-24 10.7-24 24zm-30.2 310c-17 0-33.3 6.7-45.3 18.7L77.3 424c-22.2 22.2-22.2 58.2 0 80.4c22.2 22.2 58.2 22.2 80.4 0l71.3-71.3c12-12 18.7-28.3 18.7-45.3V368H193.8zM299.4 290.4c5.2 2.9 11.1 4.4 17.2 4.4c8.9 0 17.6-3.4 24.2-9.7l120.3-114c10.1-9.5 15.9-22.9 15.9-37.1V120c0-22.1-17.9-40-40-40c-7.8 0-15.5 2.3-22.1 6.6L363.8 120l-48.1-48.1c-3-3-7.1-4.7-11.3-4.7c-8.8 0-16 7.2-16 16v38.9L199.7 211.7c-14.5 14.5-22.7 34.2-22.7 54.7v1.3c0 17 6.7 33.3 18.7 45.3l42.7 42.7c12 12 28.3 18.7 45.3 18.7h1.3c20.5 0 40.2-8.1 54.7-22.7l57-57c6.2-6.2 6.2-16.4 0-22.6s-16.4-6.2-22.6 0l-57 57c-8.7 8.7-20.5 13.6-32.7 13.6h-1.3c-10.2 0-19.9-4-27.2-11.2L213.8 288c-7.2-7.2-11.2-17-11.2-27.2v-1.3c0-12.2 4.9-24 13.6-32.7L325.8 116.2c6-6 9.4-14.1 9.4-22.6s-3.4-16.6-9.4-22.6L302.2 47.4c-3-3-4.7-7.1-4.7-11.3c0-8.8 7.2-16 16-16c4.3 0 8.3 1.7 11.3 4.7l108.5 108.5c6 6 14.1 9.4 22.6 9.4c11 0 20-9 20-20V120c0-4.8-1.9-9.3-5.3-12.5l-41.9-39.4c-2.2-1.4-3.7-3.9-3.7-6.6c0-4.4 3.6-8 8-8c1.8 0 3.5 .6 5 1.7l51.9 33.9c2.2 1.4 3.5 3.9 3.5 6.5v14.1c0 4.8-1.9 9.3-5.3 12.5L367.8 236.4c-1.3 1.2-3 1.9-4.8 1.9c-3.9 0-7-3.1-7-7c0-1.2 .3-2.4 .9-3.4l62-93c5.5-8.3 6.6-18.6 2.8-27.7s-11.8-15.6-21.6-17l-71.9-10.4c-6.9-1-13.9 .6-19.6 4.5l-90.7 62c-4.4 3-7 8-7 13.3V176c0 8.8-7.2 16-16 16s-16-7.2-16-16V161.1c0-18.8 9.4-36.3 25.1-46.7l90.7-62c13.5-9.2 30.3-12.9 46.6-10.6l71.9 10.4c23.5 3.4 43.1 19.6 52.1 43.2s3.2 49.5-12.6 69.1l-43.2 64.8z"/>
</svg>
